HIERARCHY
ROOT Hips
{
	OFFSET 0.000000 0.000000 0.000000
	CHANNELS 6 Xposition Yposition Zposition Xrotation Yrotation Zrotation
	JOINT LeftUpLeg_virtual
	{
		OFFSET 0.000000 0.000000 0.000000
		CHANNELS 3 Xrotation Yrotation Zrotation
		JOINT LeftUpLeg
		{
			OFFSET 11.394100 -6.187798 -0.413800
			CHANNELS 3 Xrotation Yrotation Zrotation
			JOINT LeftLeg
			{
				OFFSET 0.430247 -32.302673 3.732800
				CHANNELS 3 Xrotation Yrotation Zrotation
				JOINT LeftFoot
				{
					OFFSET -0.430247 -48.264931 -6.423300
					CHANNELS 3 Xrotation Yrotation Zrotation
					JOINT LeftToeBase
					{
						OFFSET 4.230900 -16.068199 23.438400
						CHANNELS 3 Xrotation Yrotation Zrotation
						JOINT LeftToe_End
						{
							OFFSET 4.510700 0.695400 19.974600
							CHANNELS 3 Xrotation Yrotation Zrotation
							End Site
							{
								OFFSET 0 0 0
							}
						}
					}
				}
			}
		}
	}
	JOINT RightUpLeg_virtual
	{
		OFFSET 0.000000 0.000000 0.000000
		CHANNELS 3 Xrotation Yrotation Zrotation
		JOINT RightUpLeg
		{
			OFFSET -11.333700 -6.187798 -0.413800
			CHANNELS 3 Xrotation Yrotation Zrotation
			JOINT RightLeg
			{
				OFFSET -0.430392 -32.302628 3.733000
				CHANNELS 3 Xrotation Yrotation Zrotation
				JOINT RightFoot
				{
					OFFSET 0.430392 -48.264973 -6.423500
					CHANNELS 3 Xrotation Yrotation Zrotation
					JOINT RightToeBase
					{
						OFFSET -4.230900 -16.068199 23.438400
						CHANNELS 3 Xrotation Yrotation Zrotation
						JOINT RightToe_End
						{
							OFFSET -4.510700 0.695400 19.974600
							CHANNELS 3 Xrotation Yrotation Zrotation
							End Site
							{
								OFFSET 0 0 0
							}
						}
					}
				}
			}
		}
	}
	JOINT Spine_virtual
	{
		OFFSET 0.000000 0.000000 0.000000
		CHANNELS 3 Xrotation Yrotation Zrotation
		JOINT Spine
		{
			OFFSET -0.002400 12.777504 0.315300
			CHANNELS 3 Xrotation Yrotation Zrotation
			JOINT Spine1
			{
				OFFSET -0.002067 5.816869 0.032633
				CHANNELS 3 Xrotation Yrotation Zrotation
				JOINT Spine1_split
				{
					OFFSET -0.002067 5.816869 0.032633
					CHANNELS 3 Xrotation Yrotation Zrotation
					JOINT Spine2
					{
						OFFSET -0.002067 5.816869 0.032633
						CHANNELS 3 Xrotation Yrotation Zrotation
						JOINT Neck_virtual
						{
							OFFSET 0.000000 0.000000 0.000000
							CHANNELS 3 Xrotation Yrotation Zrotation
							JOINT Neck
							{
								OFFSET -0.003700 21.199493 -0.826900
								CHANNELS 3 Xrotation Yrotation Zrotation
								JOINT Head
								{
									OFFSET 0.000000 20.442200 4.834800
									CHANNELS 3 Xrotation Yrotation Zrotation
									JOINT HeadTop_End
									{
										OFFSET 0.000000 34.668396 4.968400
										CHANNELS 3 Xrotation Yrotation Zrotation
										End Site
										{
											OFFSET 0 0 0
										}
									}
								}
							}
						}
						JOINT LeftShoulder_virtual
						{
							OFFSET 0.000000 0.000000 0.000000
							CHANNELS 3 Xrotation Yrotation Zrotation
							JOINT LeftShoulder
							{
								OFFSET 3.288150 8.794197 -1.372250
								CHANNELS 3 Xrotation Yrotation Zrotation
								JOINT LeftShoulder_split
								{
									OFFSET 3.288150 8.794197 -1.372250
									CHANNELS 3 Xrotation Yrotation Zrotation
									JOINT LeftArm
									{
										OFFSET 11.953299 -2.279007 -0.146200
										CHANNELS 3 Xrotation Yrotation Zrotation
										JOINT LeftForeArm
										{
											OFFSET 18.448900 0.000000 0.000000
											CHANNELS 3 Xrotation Yrotation Zrotation
											JOINT LeftHand
											{
												OFFSET 29.527798 0.000000 0.000000
												CHANNELS 3 Xrotation Yrotation Zrotation
												End Site
												{
													OFFSET 0 0 0
												}
											}
										}
									}
								}
							}
						}
						JOINT RightShoulder_virtual
						{
							OFFSET 0.000000 0.000000 0.000000
							CHANNELS 3 Xrotation Yrotation Zrotation
							JOINT RightShoulder
							{
								OFFSET -3.249400 8.794197 -1.372250
								CHANNELS 3 Xrotation Yrotation Zrotation
								JOINT RightShoulder_split
								{
									OFFSET -3.249400 8.794197 -1.372250
									CHANNELS 3 Xrotation Yrotation Zrotation
									JOINT RightArm
									{
										OFFSET -11.953299 -2.279007 -0.146200
										CHANNELS 3 Xrotation Yrotation Zrotation
										JOINT RightForeArm
										{
											OFFSET -18.448900 0.000000 0.000000
											CHANNELS 3 Xrotation Yrotation Zrotation
											JOINT RightHand
											{
												OFFSET -29.527802 0.000000 0.000000
												CHANNELS 3 Xrotation Yrotation Zrotation
												End Site
												{
													OFFSET 0 0 0
												}
											}
										}
									}
								}
							}
						}
					}
				}
			}
		}
	}
}
MOTION
Frames: 4
Frame Time: 0.03333333
0.720090 81.379593 -1.902840 0.000000 0.000000 0.000000 -4.077931 -50.320872 -0.322026 -37.947913 8.333004 19.134584 57.857481 -4.846561 6.582178 -16.681279 -8.045694 -10.520479 -8.929701 -0.155431 -2.071059 0.000000 0.000000 0.000000 -5.290686 -47.946982 0.309385 -25.064457 -10.777410 -26.945812 53.877318 -2.473356 -5.168122 -22.875671 -10.578022 23.755716 0.637455 0.208987 -2.751989 0.000000 0.000000 0.000000 -4.186422 -48.387840 -0.001544 9.850162 7.209493 -1.042377 2.327118 1.766193 -1.282257 0.064786 -0.955032 0.695742 0.000000 0.000000 0.000000 2.291188 1.417003 -0.766729 -0.844046 13.443035 4.253046 7.795173 21.761961 -6.187371 0.000000 0.000000 0.000000 3.542872 1.042716 -0.929560 1.573040 3.777166 -5.938753 -3.066054 -1.433777 -1.693451 -51.320713 3.104735 -50.014866 179.240529 -71.594541 -178.726530 0.000000 0.000000 0.000000 3.485650 1.462260 -0.594268 3.800619 11.274787 -6.065277 -2.002950 -2.649681 -0.245022 -48.815382 29.777207 86.284742 178.618162 65.479924 -178.871084 0.000000 0.000000 0.000000 
0.967759 81.065804 -1.737030 0.000000 0.000000 0.000000 -4.496254 -50.592420 -0.505782 -38.264929 7.483695 18.956845 58.505392 -4.051192 6.253858 -16.151348 -7.527243 -10.450189 -8.638484 -0.001905 -2.799731 0.000000 0.000000 0.000000 -5.249388 -47.618624 0.291175 -25.148977 -10.683605 -27.110638 54.336802 -2.113728 -5.243772 -23.603829 -10.202167 23.955464 1.168380 0.228496 -2.808346 0.000000 0.000000 0.000000 -4.547916 -48.232634 -0.196569 10.087453 7.219337 -1.000360 2.490209 1.632895 -1.155235 0.525563 -1.262799 0.935503 0.000000 0.000000 0.000000 2.255335 1.275880 -0.628681 -0.674443 13.388063 4.045701 8.245007 21.669977 -6.078859 0.000000 0.000000 0.000000 3.492490 0.968076 -0.887996 1.580657 3.891005 -6.331652 -2.932375 -1.296413 -1.460259 -51.224445 3.240707 -50.129637 179.385862 -71.867933 -178.681164 0.000000 0.000000 0.000000 3.547041 1.376309 -0.556214 3.934825 11.711356 -6.042688 -2.348794 -3.251705 -0.299170 -50.527318 29.022198 86.518812 178.962171 65.539319 -179.388266 0.000000 0.000000 0.000000 
1.138551 80.453209 -1.387833 0.000000 0.000000 0.000000 -5.191714 -51.100231 -0.877544 -39.324865 6.321034 18.844825 60.264801 -2.825473 5.770426 -14.644610 -6.969862 -10.220829 -8.479642 0.075442 -2.984384 0.000000 0.000000 0.000000 -5.541841 -47.355402 -0.048190 -25.624406 -10.753905 -27.239273 55.547473 -1.820006 -5.341989 -24.348147 -9.766180 24.179121 0.997198 0.224055 -2.608133 0.000000 0.000000 0.000000 -5.328184 -48.269555 -0.718515 10.363333 7.190050 -0.836498 2.587545 1.436998 -0.961973 0.904893 -1.199280 1.015631 0.000000 0.000000 0.000000 2.204419 1.071151 -0.497298 -0.712416 13.282962 3.760993 8.732767 21.529086 -5.860638 0.000000 0.000000 0.000000 3.447344 0.805700 -0.783527 1.597527 3.939438 -6.941685 -2.597992 -1.271154 -1.151419 -51.278461 3.667563 -50.439069 179.699367 -72.754806 -178.469196 0.000000 0.000000 0.000000 3.547948 1.184299 -0.460476 3.978337 11.952758 -5.987483 -2.822573 -3.425539 -0.221103 -52.016282 27.428872 85.928090 179.370303 66.122706 179.896323 0.000000 0.000000 0.000000 
1.319890 79.663170 -1.070728 0.000000 0.000000 0.000000 -6.136463 -51.665207 -1.383491 -40.804523 4.790730 18.639813 62.661371 -1.825141 5.412543 -12.364667 -6.903902 -10.394296 -9.830276 0.015115 -2.175090 0.000000 0.000000 0.000000 -6.227494 -47.350983 -0.562002 -26.494811 -10.921616 -27.450231 57.271659 -1.582476 -5.489149 -25.242764 -9.305993 24.212404 0.431300 0.175123 -2.118407 0.000000 0.000000 0.000000 -6.408897 -48.627276 -1.448943 10.630833 7.165422 -0.584680 2.568431 1.270997 -0.768398 1.005914 -0.747660 0.832174 0.000000 0.000000 0.000000 2.166397 0.882115 -0.417156 -0.957382 13.123408 3.442913 9.107334 21.319013 -5.592416 0.000000 0.000000 0.000000 3.388712 0.643226 -0.609132 1.610395 3.971930 -7.578076 -2.253137 -1.491916 -0.791028 -51.407262 4.118665 -50.860082 -179.934900 -73.543625 -178.207982 0.000000 0.000000 0.000000 3.461281 0.959383 -0.341801 3.928621 12.033165 -6.003297 -3.448787 -3.082817 0.182138 -52.571519 25.563035 84.748612 179.623129 66.950020 179.293367 0.000000 0.000000 0.000000 
